<?xml version="1.0" encoding="utf-8"?>
<!-- Generator: Adobe Illustrator 16.0.0, SVG Export Plug-In . SVG Version: 6.00 Build 0)  -->
<!DOCTYPE svg PUBLIC "-//W3C//DTD SVG 1.1//EN" "https://www.w3.org/Graphics/SVG/1.1/DTD/svg11.dtd">
<svg version="1.1" id="Calque_1" xmlns="https://www.w3.org/2000/svg" xmlns:xlink="https://www.w3.org/1999/xlink" x="0px" y="0px"
	 width="14px" height="19px" viewBox="0 0 14 19" enable-background="new 0 0 14 19" xml:space="preserve">
<path fill="#FFFFFF" stroke="#333333" stroke-miterlimit="10" d="M5.838,16.734c0.641,0.786,1.683,0.786,2.323,0
	c0,0,5.242-6.02,5.242-9.56c0-3.541-2.863-6.403-6.403-6.403S0.597,3.634,0.597,7.175C0.597,10.715,5.838,16.734,5.838,16.734z
	 M7,9.919c1.519,0,2.745-1.226,2.745-2.744S8.519,4.431,7,4.431S4.256,5.656,4.256,7.175S5.481,9.919,7,9.919z"/>
<path fill="#FFFFFF" stroke="#333333" stroke-miterlimit="10" d="M5.838,16.734c0.641,0.786,1.683,0.786,2.323,0
	c0,0,5.242-6.02,5.242-9.56c0-3.541-2.863-6.403-6.403-6.403S0.597,3.634,0.597,7.175C0.597,10.715,5.838,16.734,5.838,16.734z
	 M7,9.919c1.519,0,2.745-1.226,2.745-2.744S8.519,4.431,7,4.431S4.256,5.656,4.256,7.175S5.481,9.919,7,9.919z"/>
</svg>
